<?xml version="1.0" encoding="utf-8"?>
<!-- Generator: Adobe Illustrator 16.0.4, SVG Export Plug-In . SVG Version: 6.00 Build 0)  -->
<!DOCTYPE svg PUBLIC "-//W3C//DTD SVG 1.1//EN" "http://www.w3.org/Graphics/SVG/1.1/DTD/svg11.dtd">
<svg version="1.1"
	 id="svg3013" sodipodi:docname="chevron_left_font_awesome.svg" inkscape:version="0.48.3.1 r9886" xmlns:dc="http://purl.org/dc/elements/1.1/" xmlns:cc="http://creativecommons.org/ns#" xmlns:rdf="http://www.w3.org/1999/02/22-rdf-syntax-ns#" xmlns:svg="http://www.w3.org/2000/svg" xmlns:sodipodi="http://sodipodi.sourceforge.net/DTD/sodipodi-0.dtd" xmlns:inkscape="http://www.inkscape.org/namespaces/inkscape"
	 xmlns="http://www.w3.org/2000/svg" xmlns:xlink="http://www.w3.org/1999/xlink" x="0px" y="0px" width="32px" height="32px"
	 viewBox="0 0 32 32" enable-background="new 0 0 32 32" xml:space="preserve">
<sodipodi:namedview  inkscape:current-layer="svg3013" inkscape:window-maximized="0" inkscape:window-y="25" inkscape:window-x="0" inkscape:window-height="480" inkscape:window-width="640" inkscape:pageopacity="0" inkscape:pageshadow="2" inkscape:cy="896" inkscape:cx="896" inkscape:zoom="0.13169643" showgrid="false" guidetolerance="10" gridtolerance="10" objecttolerance="10" bordercolor="#666666" pagecolor="#ffffff" borderopacity="1" id="namedview3019">
	</sodipodi:namedview>
<g id="g3015" transform="matrix(1,0,0,-1,387.25424,1338.5763)">
	<path id="path3017" inkscape:connector-curvature="0" fill="#FF9700" d="M-367.719,1309.336l-11.643,11.625
		c-0.44,0.439-0.66,0.979-0.66,1.616c0,0.637,0.22,1.175,0.66,1.616l11.643,11.625c0.44,0.44,0.979,0.661,1.616,0.661
		s1.176-0.221,1.616-0.661l1.339-1.339c0.441-0.44,0.661-0.979,0.661-1.616s-0.22-1.176-0.661-1.616l-8.678-8.679l8.678-8.661
		c0.441-0.451,0.661-0.994,0.661-1.625s-0.22-1.166-0.661-1.607l-1.339-1.338c-0.44-0.441-0.979-0.662-1.616-0.662
		S-367.279,1308.895-367.719,1309.336z"/>
</g>
</svg>
