<svg xmlns="http://www.w3.org/2000/svg" viewBox="0 0 852.39 212.56"><defs><style>.cls-1,.cls-2{fill:#694873;}.cls-1{fill-rule:evenodd;}</style></defs><title>Logo</title><g id="Layer_2" data-name="Layer 2"><g id="Words_Space" data-name="Words + Space"><path class="cls-1" d="M212.67,106.19a9.89,9.89,0,0,1-.47.92,3.28,3.28,0,0,1-.47.49L107.59,211.74c-.17.17-.34.35-.53.51a1.16,1.16,0,0,1-1.57,0,6.3,6.3,0,0,1-.53-.51L.77,107.55c-1-1-1-1.52,0-2.54L105,.77c1-1,1.52-1,2.55,0L211.82,105.05A9.75,9.75,0,0,1,212.67,106.19ZM106.3,10.4,10.4,106.3l95.89,95.89,95.9-95.9Z"/><path class="cls-1" d="M116.5,136.69c-.34.11-.67.24-1,.33a2.35,2.35,0,0,0-1.84,2.36c0,1.27,0,2.54,0,3.8a2.53,2.53,0,0,1-2.1,2.5,39.12,39.12,0,0,1-4.82.61,27.79,27.79,0,0,1-4.18-.38,10.73,10.73,0,0,1-1.83-.41,2.38,2.38,0,0,1-1.7-2.36c0-1.16,0-2.33,0-3.5A2.64,2.64,0,0,0,97,137a49.9,49.9,0,0,1-5.57-2.28c-1.7-.81-2.31-.78-3.61.54-.73.74-1.46,1.48-2.21,2.21a2.67,2.67,0,0,1-3.46.39,23.1,23.1,0,0,1-7.29-7.3,2.7,2.7,0,0,1,.42-3.64c.8-.79,1.59-1.59,2.39-2.38a2.2,2.2,0,0,0,.44-2.93,31,31,0,0,1-2.52-6.07,2.39,2.39,0,0,0-2.57-1.9H69.38a2.48,2.48,0,0,1-2.45-1.92,31.37,31.37,0,0,1-.63-5.25,31.29,31.29,0,0,1,.63-5.37,2.5,2.5,0,0,1,2.68-2.12c1.15,0,2.29,0,3.43,0a2.34,2.34,0,0,0,2.51-1.88c.43-1.43.43-1.35,1.92-1.41a28.76,28.76,0,0,0,3.75-.48,1.39,1.39,0,0,1,1.34.33q1.69,1.6,3.43,3.15a.75.75,0,0,1,.26.95,20.25,20.25,0,0,0-1,8.73,19.83,19.83,0,0,0,3.34,9.51,21.12,21.12,0,0,0,19.76,9.49,16.19,16.19,0,0,0,5.25-1.24.89.89,0,0,1,1.24.32,8.05,8.05,0,0,0,1,1.14c.76.7.57,1.55.43,2.39a16,16,0,0,0-.16,5C116.23,135.5,116.37,136,116.5,136.69Z"/><path class="cls-1" d="M137.08,115.58a11.64,11.64,0,0,0-5.47-.41,1.71,1.71,0,0,0-.54.11,1.86,1.86,0,0,1-2.46-.47c-.57-.64-1.29-1.13-1.9-1.73a.87.87,0,0,1-.19-.72A21.11,21.11,0,0,0,114.86,87a20.56,20.56,0,0,0-15.18-.72A1.21,1.21,0,0,1,98.18,86c-.89-1-1.81-1.95-2.78-2.86a1.69,1.69,0,0,1-.53-1.6,20.41,20.41,0,0,0,.39-5.05.57.57,0,0,1,.3-.43c.49-.2,1-.34,1.51-.5a2.18,2.18,0,0,0,1.79-2.37c0-1.17,0-2.33,0-3.5a2.66,2.66,0,0,1,2.29-2.82,22.69,22.69,0,0,1,10.45.08,2.69,2.69,0,0,1,2.08,2.62c0,1.17,0,2.33,0,3.5a2.16,2.16,0,0,0,1.69,2.45A38.7,38.7,0,0,1,122,78.19a1.89,1.89,0,0,0,2.32-.39c.85-.82,1.68-1.67,2.53-2.5a2.84,2.84,0,0,1,4-.41,24.73,24.73,0,0,1,4,3.56,15.92,15.92,0,0,1,3.06,3.8,2.63,2.63,0,0,1-.4,3.36c-.84.86-1.71,1.71-2.56,2.56a2.18,2.18,0,0,0-.41,2.78c.89,2,1.74,4,2.51,6,.51,1.36,1.06,1.86,2.51,1.88,1.12,0,2.25,0,3.37,0a2.68,2.68,0,0,1,2.86,2.32,22.63,22.63,0,0,1-.08,10.39A2.69,2.69,0,0,1,143,113.7c-1.06,0-2.12,0-3.18,0A2.42,2.42,0,0,0,137.08,115.58Z"/><path class="cls-1" d="M130.74,144.7a11.55,11.55,0,0,1-5.28-1.37c-2.9-1.7-5.42-3.79-6.41-7.21a5.35,5.35,0,0,1-.26-1.59,22.87,22.87,0,0,1,.3-5.06,7.71,7.71,0,0,0,0-1.88,1,1,0,0,0-.36-.71c-5.4-5.45-10.72-11-16.24-16.33-4.85-4.68-9.92-9.12-14.88-13.67-1.59-1.46-3.19-2.9-4.74-4.39a2,2,0,0,0-2.2-.44,11.31,11.31,0,0,1-4.68.56,9.94,9.94,0,0,1-5.6-2.43,13.77,13.77,0,0,1-4.88-8.9c-.11-.67-.11-1.33-.15-2a1.14,1.14,0,0,1,.1-.61c.34-.68.38-.69,1-.29,2.11,1.32,4.2,2.66,6.32,4a3.85,3.85,0,0,0,4.43,0,8.07,8.07,0,0,0,3.88-7.22,4,4,0,0,0-2-3.32Q76.34,70,73.47,68.12c-.25-.17-.71-.27-.65-.59a1.35,1.35,0,0,1,.81-1,17.85,17.85,0,0,1,3-1,13,13,0,0,1,7.41.29c3.81,1.45,6.84,3.8,8.17,7.86a10.8,10.8,0,0,1,.16,5.69,10.63,10.63,0,0,0-.21,2.86,1.18,1.18,0,0,0,.37.77c5.32,5.36,10.54,10.82,16,16.07,4.61,4.47,9.45,8.7,14.19,13,1.84,1.68,3.71,3.33,5.49,5.06a2.27,2.27,0,0,0,2.51.62c6.23-2.26,11.6,1.93,13.68,6.29a15.55,15.55,0,0,1,1.55,6.39,1.58,1.58,0,0,1,0,.5c-.19.75-.5.88-1.14.48l-6-3.76c-2-1.25-3.77-1.21-5.52.35a8.09,8.09,0,0,0-3.12,6.49,4.19,4.19,0,0,0,2,3.51l5.8,3.73c.74.48.71,1.08-.12,1.46a14.78,14.78,0,0,1-3.14,1,16.28,16.28,0,0,1-3,.37A1.44,1.44,0,0,1,130.74,144.7Z"/><path class="cls-2" d="M323,153.87l-8.43-19.58h-38l-8.43,19.58H246.64l39.16-90.65h19.58l39.16,90.65ZM295.66,90.2l-11.41,26.32h22.69Z"/><path class="cls-2" d="M386.33,136q14.91,0,24.38-11.8l13,13.36q-15.43,17.38-36.38,17.38t-34.5-13.23q-13.55-13.23-13.55-33.39t13.81-33.65q13.81-13.48,33.78-13.49,22.3,0,37.35,17L411.61,92.4Q402,80.47,387.75,80.47a27.81,27.81,0,0,0-19.52,7.46q-8.11,7.46-8.11,20.1t7.65,20.3A25.26,25.26,0,0,0,386.33,136Z"/><path class="cls-2" d="M513.25,96.81l-24.51,49.54H476.68L452.3,96.81v57.06H432.07V63.22h27.36L482.77,113l23.47-49.8h27.24v90.65H513.25Z"/><path class="cls-2" d="M568.07,153.87V63.22h15.3v39.29h45V63.22h15.3v90.65h-15.3V116.78h-45v37.09Z"/><path class="cls-2" d="M712.16,153.87H698.93v-9.21q-8.56,10.25-23,10.25-10.77,0-17.83-6.09t-7.07-16.28q0-10.18,7.52-15.24T679,112.24h18.8v-2.59q0-13.75-15.3-13.75-9.6,0-20,7L656,93.83a44.66,44.66,0,0,1,28.53-10q12.19,0,19.91,6.16t7.72,19.39Zm-14.53-25.68v-5.84H681.29q-15.69,0-15.69,9.86a8.77,8.77,0,0,0,3.89,7.72q3.89,2.66,10.83,2.66a19.66,19.66,0,0,0,12.12-3.89A12.45,12.45,0,0,0,697.63,128.19Z"/><path class="cls-2" d="M754.63,154.91a34.83,34.83,0,0,1-24.77-9.79q-10.38-9.79-10.38-25.61t10.83-25.74q10.83-9.92,26.39-9.92A35.81,35.81,0,0,1,783,94.61l-8.56,10.5q-8.95-7.78-18-7.78a22.74,22.74,0,0,0-15.76,6A20,20,0,0,0,734,118.92a22.59,22.59,0,0,0,22.89,22.76q9.66,0,18.22-8.82l8.56,9.34Q771.09,154.91,754.63,154.91Z"/><path class="cls-2" d="M803.76,153.87H789.24V57.65h14.53v56.54l28-29.31h18.67l-26.2,27.36,28.14,41.63H834.75l-20.49-30.22-10.5,10.63Z"/></g></g></svg>